<svg width="41" height="40" viewBox="0 0 41 40" fill="none" xmlns="http://www.w3.org/2000/svg">
<g id="clock ">
<path id="Vector" d="M18.6667 3.33337C15.3703 3.33337 12.148 4.31086 9.40717 6.14221C6.66635 7.97357 4.53014 10.5765 3.26868 13.622C2.00722 16.6674 1.67717 20.0185 2.32025 23.2515C2.96334 26.4846 4.55069 29.4543 6.88156 31.7852C9.21244 34.116 12.1822 35.7034 15.4152 36.3465C18.6482 36.9896 21.9993 36.6595 25.0447 35.398C28.0902 34.1366 30.6931 32.0004 32.5245 29.2595C34.3559 26.5187 35.3333 23.2964 35.3333 20C35.3333 17.8113 34.9022 15.6441 34.0647 13.622C33.2271 11.5999 31.9994 9.76257 30.4518 8.21493C28.9041 6.66728 27.0668 5.43963 25.0447 4.60205C23.0226 3.76447 20.8554 3.33337 18.6667 3.33337ZM18.6667 33.3334C16.0296 33.3334 13.4517 32.5514 11.2591 31.0863C9.06641 29.6212 7.35745 27.5388 6.34828 25.1025C5.33911 22.6661 5.07507 19.9853 5.58954 17.3988C6.10401 14.8124 7.37388 12.4367 9.23858 10.572C11.1033 8.70725 13.4791 7.43737 16.0655 6.9229C18.6519 6.40843 21.3328 6.67248 23.7691 7.68165C26.2055 8.69082 28.2878 10.3998 29.7529 12.5924C31.218 14.7851 32 17.363 32 20C32 23.5363 30.5952 26.9276 28.0948 29.4281C25.5943 31.9286 22.2029 33.3334 18.6667 33.3334ZM20.3333 19.8834V11.6667C20.3333 11.2247 20.1577 10.8008 19.8452 10.4882C19.5326 10.1756 19.1087 10 18.6667 10C18.2246 10 17.8007 10.1756 17.4882 10.4882C17.1756 10.8008 17 11.2247 17 11.6667V20C17 20 17 20.1167 17 20.1834C16.959 20.5222 17.023 20.8654 17.1833 21.1667L19.6833 25.5C19.9044 25.8846 20.2691 26.1656 20.6973 26.2813C21.1255 26.3969 21.5821 26.3377 21.9667 26.1167C22.3512 25.8957 22.6323 25.531 22.7479 25.1028C22.8635 24.6745 22.8044 24.2179 22.5833 23.8334L20.3333 19.8834Z" fill="#FF9900"/>
</g>
</svg>
