<svg width="24" height="24" viewBox="0 0 24 24" fill="none" xmlns="http://www.w3.org/2000/svg">
<g id="emdr 1">
<path id="Vector" d="M14.78 20.0001H9.78C7.98 20.0001 4.58 19.0901 4.58 15.6401C4.58 12.1901 7.98 11.2801 9.78 11.2801H14.22C14.37 11.2801 17.92 11.2301 17.92 8.42006C17.92 5.61006 14.37 5.56006 14.22 5.56006H9.22C9.02109 5.56006 8.83032 5.48104 8.68967 5.34039C8.54902 5.19974 8.47 5.00897 8.47 4.81006C8.47 4.61115 8.54902 4.42038 8.68967 4.27973C8.83032 4.13908 9.02109 4.06006 9.22 4.06006H14.22C16.02 4.06006 19.42 4.97006 19.42 8.42006C19.42 11.8701 16.02 12.7801 14.22 12.7801H9.78C9.63 12.7801 6.08 12.8301 6.08 15.6401C6.08 18.4501 9.63 18.5001 9.78 18.5001H14.78C14.9789 18.5001 15.1697 18.5791 15.3103 18.7198C15.451 18.8604 15.53 19.0512 15.53 19.2501C15.53 19.449 15.451 19.6398 15.3103 19.7804C15.1697 19.9211 14.9789 20.0001 14.78 20.0001Z" fill="#F1BDB9"/>
<path id="Vector_2" d="M6.44 8.30988C5.74314 8.30395 5.06363 8.0919 4.48708 7.70044C3.91054 7.30897 3.46276 6.75561 3.20018 6.11009C2.93759 5.46457 2.87195 4.75577 3.01153 4.073C3.1511 3.39024 3.48965 2.76406 3.9845 2.27338C4.47935 1.78269 5.10837 1.44946 5.79229 1.31567C6.47622 1.18188 7.18444 1.25351 7.82771 1.52155C8.47099 1.78959 9.02054 2.24203 9.40711 2.82187C9.79368 3.4017 9.99998 4.08299 10 4.77988C10 5.24598 9.90773 5.70747 9.72846 6.13771C9.54919 6.56796 9.28648 6.95844 8.95551 7.28663C8.62453 7.61482 8.23184 7.87421 7.80009 8.04983C7.36834 8.22546 6.90609 8.31384 6.44 8.30988ZM6.44 2.74988C6.04444 2.74988 5.65776 2.86717 5.32886 3.08694C4.99996 3.3067 4.74362 3.61906 4.59224 3.98451C4.44087 4.34996 4.40126 4.75209 4.47843 5.14006C4.5556 5.52802 4.74609 5.88438 5.02579 6.16409C5.3055 6.44379 5.66186 6.63428 6.04982 6.71145C6.43779 6.78862 6.83992 6.74901 7.20537 6.59764C7.57082 6.44626 7.88318 6.18991 8.10294 5.86102C8.32271 5.53212 8.44 5.14544 8.44 4.74988C8.44 4.48723 8.38827 4.22716 8.28776 3.98451C8.18725 3.74186 8.03993 3.52138 7.85422 3.33566C7.6685 3.14995 7.44802 3.00263 7.20537 2.90212C6.96272 2.80161 6.70265 2.74988 6.44 2.74988Z" fill="#F1BDB9"/>
<path id="Vector_3" d="M17.56 22.7499C16.8614 22.7519 16.1779 22.5465 15.5961 22.1598C15.0143 21.7732 14.5603 21.2226 14.2916 20.5777C14.0229 19.9329 13.9515 19.2228 14.0866 18.5374C14.2217 17.852 14.5571 17.222 15.0504 16.7274C15.5437 16.2327 16.1726 15.8955 16.8577 15.7585C17.5427 15.6214 18.253 15.6908 18.8986 15.9576C19.5442 16.2245 20.0961 16.677 20.4844 17.2577C20.8727 17.8384 21.08 18.5213 21.08 19.2199C21.08 20.1544 20.7095 21.0507 20.0496 21.7124C19.3898 22.3742 18.4945 22.7472 17.56 22.7499ZM17.56 17.1899C17.1644 17.1899 16.7778 17.3072 16.4489 17.527C16.12 17.7467 15.8636 18.0591 15.7122 18.4245C15.5609 18.79 15.5213 19.1921 15.5984 19.5801C15.6756 19.968 15.8661 20.3244 16.1458 20.6041C16.4255 20.8838 16.7819 21.0743 17.1698 21.1515C17.5578 21.2286 17.9599 21.189 18.3254 21.0376C18.6908 20.8863 19.0032 20.6299 19.2229 20.301C19.4427 19.9721 19.56 19.5855 19.56 19.1899C19.56 18.6595 19.3493 18.1507 18.9742 17.7757C18.5991 17.4006 18.0904 17.1899 17.56 17.1899Z" fill="#F1BDB9"/>
</g>
</svg>
