<svg width="24" height="26" viewBox="0 0 24 26" fill="none" xmlns="http://www.w3.org/2000/svg">
<g id="layer1">
<path id="Vector" d="M12 0.163086C5.37969 0.163086 0 5.90037 0 12.9607C0 20.0211 5.37969 25.7584 12 25.7584C13.1265 25.7584 14.2119 25.5814 15.2461 25.271L14.257 24.2162C13.5287 24.382 12.7757 24.4786 12 24.4786C9.33661 24.4786 6.90657 23.449 5.025 21.7491L5.14453 21.7091L6.10547 21.4267L7.08047 21.1867L8.06016 20.9893L8.33672 20.9168L8.60391 20.7968L8.84531 20.6343L9.06094 20.4294L9.24141 20.1944L9.38672 19.927L9.49219 19.642L9.54844 19.3421L9.56484 19.0371L9.53203 18.7322L9.45469 18.4372L9.33516 18.1598L9.17813 17.9073L8.98828 17.6249L8.82422 17.3324L8.48906 16.6151L8.19141 15.8777L7.93125 15.1278L7.70859 14.3605L7.52813 13.5831L7.38516 12.7958L7.28203 12.0034L7.21875 11.2061L7.2 10.4037L7.22344 9.9013L7.29375 9.40389L7.40625 8.91648L7.56563 8.44407L7.76719 7.98915L8.00859 7.55923L8.28984 7.1543L8.60391 6.78187L8.95547 6.44443L9.33281 6.14449L9.73828 5.88954L10.1648 5.67208L10.6078 5.50461L11.0625 5.38213L11.5289 5.30714L12 5.28215L12.4711 5.30714L12.9375 5.38213L13.3922 5.50461L13.8352 5.67208L14.2641 5.88954L14.6672 6.14449L15.0445 6.44443L15.3961 6.78187L15.7102 7.1543L15.9914 7.55923L16.2328 7.98915L16.4344 8.44407L16.5938 8.91648L16.7086 9.40389L16.7789 9.9013L16.8 10.4037L16.7812 11.2061L16.718 12.0034L16.6148 12.7958L16.4742 13.5831L16.2914 14.3605L16.0688 15.1278L15.8086 15.8777L15.5109 16.6151L15.1758 17.3324L15.1336 17.4074L16.5516 15.8952L16.9031 15.5203H17.2125L17.4492 14.7029L17.6461 13.8606L17.8008 13.0057L17.9109 12.1409L17.9789 11.2735L18 10.4037L17.9789 9.84631L17.9086 9.29141L17.7961 8.74651L17.6367 8.21411L17.4375 7.6992L17.1961 7.2018L16.9172 6.73188L16.5961 6.28946L16.2445 5.87704L15.8555 5.50211L15.443 5.16217L15 4.85972L14.5359 4.60227L14.0531 4.38981L13.5539 4.21984L13.0406 4.09986L12.5227 4.02738L12 4.00238L11.4773 4.02738L10.9594 4.09986L10.4461 4.21984L9.94688 4.38981L9.46406 4.60227L9 4.85972L8.55938 5.16217L8.14453 5.50211L7.75547 5.87704L7.40391 6.28946L7.08516 6.73188L6.80391 7.2018L6.5625 7.6992L6.36328 8.21411L6.20391 8.74651L6.09141 9.29141L6.02344 9.84631L6 10.4037L6.02109 11.2735L6.08906 12.1409L6.19922 13.0057L6.35391 13.8606L6.55078 14.7029L6.79219 15.5378L7.07813 16.3551L7.39922 17.1525L7.76484 17.9323L7.98281 18.3273L8.23594 18.6997L8.31563 18.8422L8.35781 19.0021L8.3625 19.1646L8.325 19.3271L8.25 19.472L8.14453 19.592L8.01328 19.6795L7.86328 19.727L6.83438 19.9345L5.8125 20.1869L4.80234 20.4844L4.05 20.7418C2.28549 18.6922 1.2 15.9674 1.2 12.9607C1.2 6.59201 6.02822 1.44285 12 1.44285C17.9718 1.44285 22.8 6.59201 22.8 12.9607C22.8 15.3363 22.1149 17.5299 20.9602 19.3596H22.3781C23.4033 17.4749 24 15.2934 24 12.9607C24 5.90037 18.6203 0.163086 12 0.163086ZM17.4 16.8L13.2 21.2792L17.4 25.7584H19.2L15.6 21.9191H24V20.6393H15.6L19.2 16.8H17.4Z" fill="#EEAEA9"/>
</g>
</svg>
