<svg width="32" height="32" viewBox="0 0 32 32" fill="none" xmlns="http://www.w3.org/2000/svg">
<g id="telehealth 1" clip-path="url(#clip0_14_197)">
<path id="telemedicine_1_" d="M31 31.3601H0.999999C0.800999 31.3601 0.639999 31.1991 0.639999 31.0001V1.00014C0.639999 0.801137 0.800999 0.640137 0.999999 0.640137H31C31.199 0.640137 31.36 0.801137 31.36 1.00014V31.0001C31.36 31.1991 31.199 31.3601 31 31.3601ZM27.36 30.6401H30.639V4.36014H1.36V30.6401H4.64V30.0001C4.64 25.2861 7.929 21.0121 12.578 19.5211C10.768 18.3591 9.64 16.2821 9.64 14.0001C9.64 10.4341 12.433 7.64014 16 7.64014C19.567 7.64014 22.36 10.4331 22.36 14.0001C22.36 16.2821 21.231 18.3591 19.421 19.5211C24.071 21.0121 27.36 25.2881 27.36 30.0001V30.6401ZM5.359 30.6401H26.639V30.0001C26.639 25.3271 23.166 21.1121 18.382 19.9791C18.232 19.9431 18.121 19.8161 18.107 19.6621C18.092 19.5091 18.178 19.3631 18.319 19.3001C20.337 18.4031 21.639 16.3221 21.639 14.0011C21.639 13.4281 21.558 12.8781 21.407 12.3611H18.333C18.159 13.4921 17.179 14.3611 16 14.3611C14.821 14.3611 13.841 13.4921 13.667 12.3611H10.593C10.441 12.8781 10.36 13.4281 10.36 14.0011C10.36 16.3231 11.663 18.4021 13.679 19.3001C13.82 19.3631 13.905 19.5091 13.891 19.6621C13.877 19.8161 13.766 19.9431 13.616 19.9791C8.832 21.1121 5.359 25.3261 5.359 30.0001V30.6401ZM16 10.3601C15.096 10.3601 14.36 11.0961 14.36 12.0001C14.36 12.9041 15.096 13.6401 16 13.6401C16.904 13.6401 17.64 12.9041 17.64 12.0001C17.64 11.0961 16.904 10.3601 16 10.3601ZM18.333 11.6401H21.141C20.264 9.68814 18.315 8.36014 16 8.36014C13.685 8.36014 11.737 9.68814 10.859 11.6401H13.668C13.842 10.5091 14.822 9.64014 16.001 9.64014C17.18 9.64014 18.159 10.5091 18.333 11.6401ZM1.36 3.64014H30.64V1.36014H1.36V3.64014ZM19.36 29.0001H18.64V26.3601H16V25.6401H18.64V23.0001H19.361V25.6401H22V26.3611H19.36V29.0001ZM29 2.50014C29 2.77614 28.776 3.00014 28.5 3.00014C28.224 3.00014 28 2.77614 28 2.50014C28 2.22414 28.224 2.00014 28.5 2.00014C28.776 2.00014 29 2.22414 29 2.50014ZM26.5 2.00014C26.224 2.00014 26 2.22414 26 2.50014C26 2.77614 26.224 3.00014 26.5 3.00014C26.776 3.00014 27 2.77614 27 2.50014C27 2.22414 26.776 2.00014 26.5 2.00014ZM24.5 2.00014C24.224 2.00014 24 2.22414 24 2.50014C24 2.77614 24.224 3.00014 24.5 3.00014C24.776 3.00014 25 2.77614 25 2.50014C25 2.22414 24.776 2.00014 24.5 2.00014Z" fill="#EEAEA9"/>
</g>
<defs>
<clipPath id="clip0_14_197">
<rect width="32" height="32" fill="white"/>
</clipPath>
</defs>
</svg>
