<?xml version="1.0" encoding="utf-8"?><!-- Uploaded to: SVG Repo, www.svgrepo.com, Generator: SVG Repo Mixer Tools -->
<svg width="800px" height="800px" viewBox="0 -0.5 25 25" fill="none" xmlns="http://www.w3.org/2000/svg">
<path d="M13.05 11.99C13.05 11.5758 12.7142 11.24 12.3 11.24C11.8858 11.24 11.55 11.5758 11.55 11.99H13.05ZM11.55 13.99C11.55 14.4042 11.8858 14.74 12.3 14.74C12.7142 14.74 13.05 14.4042 13.05 13.99H11.55ZM13.05 13.99C13.05 13.5758 12.7142 13.24 12.3 13.24C11.8858 13.24 11.55 13.5758 11.55 13.99H13.05ZM11.55 15.99C11.55 16.4042 11.8858 16.74 12.3 16.74C12.7142 16.74 13.05 16.4042 13.05 15.99H11.55ZM12.3 14.74C12.7142 14.74 13.05 14.4042 13.05 13.99C13.05 13.5758 12.7142 13.24 12.3 13.24V14.74ZM10.3438 13.24C9.92954 13.24 9.59375 13.5758 9.59375 13.99C9.59375 14.4042 9.92954 14.74 10.3438 14.74V13.24ZM12.3 13.24C11.8858 13.24 11.55 13.5758 11.55 13.99C11.55 14.4042 11.8858 14.74 12.3 14.74V13.24ZM14.2563 14.74C14.6705 14.74 15.0063 14.4042 15.0063 13.99C15.0063 13.5758 14.6705 13.24 14.2563 13.24V14.74ZM11.55 11.99V13.99H13.05V11.99H11.55ZM11.55 13.99V15.99H13.05V13.99H11.55ZM12.3 13.24H10.3438V14.74H12.3V13.24ZM12.3 14.74H14.2563V13.24H12.3V14.74Z" fill="#6a425d"/>
<path d="M8.61563 8C8.61563 8.41421 8.95142 8.75 9.36563 8.75C9.77985 8.75 10.1156 8.41421 10.1156 8L8.61563 8ZM10.8328 5.40192L11.2141 6.0478L10.8328 5.40192ZM13.7672 5.40192L13.386 6.0478L13.386 6.0478L13.7672 5.40192ZM14.4844 8C14.4844 8.41421 14.8202 8.75 15.2344 8.75C15.6486 8.75 15.9844 8.41421 15.9844 8H14.4844ZM9.39481 8.74943C9.80871 8.73332 10.1312 8.38472 10.1151 7.97082C10.099 7.55692 9.75036 7.23445 9.33646 7.25057L9.39481 8.74943ZM5.48346 11.5L4.74303 11.3805C4.74167 11.389 4.74045 11.3974 4.73938 11.4059L5.48346 11.5ZM5.45313 11.99L6.20314 11.99L6.20313 11.9884L5.45313 11.99ZM5.45313 15.99H4.70313C4.70313 15.9994 4.70331 16.0087 4.70366 16.0181L5.45313 15.99ZM9.6669 19.99V19.24C9.65774 19.24 9.64859 19.2402 9.63944 19.2405L9.6669 19.99ZM14.9331 19.99L14.9606 19.2405C14.9514 19.2402 14.9423 19.24 14.9331 19.24L14.9331 19.99ZM19.1469 15.99L19.8964 16.0181C19.8967 16.0087 19.8969 15.9994 19.8969 15.99L19.1469 15.99ZM19.1469 11.99L18.3969 11.9891V11.99H19.1469ZM19.1166 11.504L19.8606 11.4099C19.8596 11.4017 19.8584 11.3934 19.8571 11.3852L19.1166 11.504ZM15.2637 7.25057C14.8498 7.23439 14.5011 7.5568 14.485 7.9707C14.4688 8.3846 14.7912 8.73325 15.2051 8.74943L15.2637 7.25057ZM9.36563 7.25C8.95142 7.25 8.61563 7.58579 8.61563 8C8.61563 8.41421 8.95142 8.75 9.36563 8.75V7.25ZM15.2344 8.75C15.6486 8.75 15.9844 8.41421 15.9844 8C15.9844 7.58579 15.6486 7.25 15.2344 7.25V8.75ZM10.1156 8C10.1156 7.18813 10.5393 6.44606 11.2141 6.0478L10.4516 4.75605C9.31051 5.42958 8.61563 6.66828 8.61563 8L10.1156 8ZM11.2141 6.0478C11.8868 5.65073 12.7133 5.65073 13.386 6.0478L14.1484 4.75605C13.0053 4.08132 11.5947 4.08132 10.4516 4.75605L11.2141 6.0478ZM13.386 6.0478C14.0607 6.44606 14.4844 7.18813 14.4844 8H15.9844C15.9844 6.66828 15.2895 5.42958 14.1484 4.75605L13.386 6.0478ZM9.33646 7.25057C7.02531 7.34054 5.11456 9.07789 4.74303 11.3805L6.22388 11.6195C6.48529 9.9993 7.81992 8.81075 9.39481 8.74943L9.33646 7.25057ZM4.73938 11.4059C4.71482 11.6001 4.70271 11.7958 4.70314 11.9916L6.20313 11.9884C6.20285 11.8565 6.211 11.7248 6.22753 11.5941L4.73938 11.4059ZM4.70313 11.99V15.99H6.20313V11.99H4.70313ZM4.70366 16.0181C4.8045 18.709 7.02223 20.8374 9.69436 20.7395L9.63944 19.2405C7.82565 19.307 6.27361 17.8568 6.20261 15.9619L4.70366 16.0181ZM9.6669 20.74H14.9331V19.24H9.6669V20.74ZM14.9057 20.7395C17.5778 20.8374 19.7955 18.709 19.8964 16.0181L18.3974 15.9619C18.3264 17.8568 16.7744 19.307 14.9606 19.2405L14.9057 20.7395ZM19.8969 15.99V11.99H18.3969V15.99H19.8969ZM19.8969 11.9909C19.8971 11.7966 19.885 11.6026 19.8606 11.4099L18.3725 11.5981C18.3889 11.7278 18.397 11.8584 18.3969 11.9891L19.8969 11.9909ZM19.8571 11.3852C19.4875 9.08076 17.5763 7.34098 15.2637 7.25057L15.2051 8.74943C16.781 8.81104 18.116 10.0013 18.376 11.6228L19.8571 11.3852ZM9.36563 8.75H15.2344V7.25H9.36563V8.75Z" fill="#6a425d"/>
</svg>